<mxfile host="app.diagrams.net" agent="Mozilla/5.0 (Windows NT 10.0; Win64; x64) AppleWebKit/537.36 (KHTML, like Gecko) Chrome/132.0.0.0 YaBrowser/25.2.0.0 Safari/537.36" version="25.0.3">
  <diagram name="Страница — 1" id="QMlC2cDegaGpezUHxMdJ">
    <mxGraphModel dx="1304" dy="712" grid="1" gridSize="10" guides="1" tooltips="1" connect="1" arrows="1" fold="1" page="1" pageScale="1" pageWidth="827" pageHeight="1169" math="0" shadow="0">
      <root>
        <mxCell id="0" />
        <mxCell id="1" parent="0" />
        <mxCell id="n2Iy5TiBQxEFvjtpy_j6-13" value="ТОВАР (PRODUCT)" style="swimlane;fontStyle=0;childLayout=stackLayout;horizontal=1;startSize=30;horizontalStack=0;resizeParent=1;resizeParentMax=0;resizeLast=0;collapsible=1;marginBottom=0;whiteSpace=wrap;html=1;" vertex="1" parent="1">
          <mxGeometry x="320" y="350" width="230" height="150" as="geometry" />
        </mxCell>
        <mxCell id="n2Iy5TiBQxEFvjtpy_j6-14" value="&lt;div&gt;Код товара (product_ID)&lt;/div&gt;" style="text;strokeColor=none;fillColor=none;align=left;verticalAlign=middle;spacingLeft=4;spacingRight=4;overflow=hidden;points=[[0,0.5],[1,0.5]];portConstraint=eastwest;rotatable=0;whiteSpace=wrap;html=1;" vertex="1" parent="n2Iy5TiBQxEFvjtpy_j6-13">
          <mxGeometry y="30" width="230" height="30" as="geometry" />
        </mxCell>
        <mxCell id="n2Iy5TiBQxEFvjtpy_j6-17" value="&lt;div&gt;Цена (price)&lt;/div&gt;" style="text;strokeColor=none;fillColor=none;align=left;verticalAlign=middle;spacingLeft=4;spacingRight=4;overflow=hidden;points=[[0,0.5],[1,0.5]];portConstraint=eastwest;rotatable=0;whiteSpace=wrap;html=1;" vertex="1" parent="n2Iy5TiBQxEFvjtpy_j6-13">
          <mxGeometry y="60" width="230" height="30" as="geometry" />
        </mxCell>
        <mxCell id="n2Iy5TiBQxEFvjtpy_j6-15" value="&lt;div&gt;Справочная информация (description)&lt;/div&gt;" style="text;strokeColor=none;fillColor=none;align=left;verticalAlign=middle;spacingLeft=4;spacingRight=4;overflow=hidden;points=[[0,0.5],[1,0.5]];portConstraint=eastwest;rotatable=0;whiteSpace=wrap;html=1;" vertex="1" parent="n2Iy5TiBQxEFvjtpy_j6-13">
          <mxGeometry y="90" width="230" height="30" as="geometry" />
        </mxCell>
        <mxCell id="n2Iy5TiBQxEFvjtpy_j6-16" value="&lt;div&gt;Признак доставки (delivery_available)&lt;/div&gt;" style="text;strokeColor=none;fillColor=none;align=left;verticalAlign=middle;spacingLeft=4;spacingRight=4;overflow=hidden;points=[[0,0.5],[1,0.5]];portConstraint=eastwest;rotatable=0;whiteSpace=wrap;html=1;" vertex="1" parent="n2Iy5TiBQxEFvjtpy_j6-13">
          <mxGeometry y="120" width="230" height="30" as="geometry" />
        </mxCell>
        <mxCell id="n2Iy5TiBQxEFvjtpy_j6-20" value="ЗАКАЗЧИК (CUSTOMER)" style="swimlane;fontStyle=0;childLayout=stackLayout;horizontal=1;startSize=30;horizontalStack=0;resizeParent=1;resizeParentMax=0;resizeLast=0;collapsible=1;marginBottom=0;whiteSpace=wrap;html=1;" vertex="1" parent="1">
          <mxGeometry x="910" y="230" width="200" height="180" as="geometry" />
        </mxCell>
        <mxCell id="n2Iy5TiBQxEFvjtpy_j6-21" value="&lt;div&gt;Код заказчика (customer_ID)&lt;/div&gt;" style="text;strokeColor=none;fillColor=none;align=left;verticalAlign=middle;spacingLeft=4;spacingRight=4;overflow=hidden;points=[[0,0.5],[1,0.5]];portConstraint=eastwest;rotatable=0;whiteSpace=wrap;html=1;" vertex="1" parent="n2Iy5TiBQxEFvjtpy_j6-20">
          <mxGeometry y="30" width="200" height="30" as="geometry" />
        </mxCell>
        <mxCell id="n2Iy5TiBQxEFvjtpy_j6-22" value="&lt;div&gt;Наименование (name)&lt;/div&gt;" style="text;strokeColor=none;fillColor=none;align=left;verticalAlign=middle;spacingLeft=4;spacingRight=4;overflow=hidden;points=[[0,0.5],[1,0.5]];portConstraint=eastwest;rotatable=0;whiteSpace=wrap;html=1;" vertex="1" parent="n2Iy5TiBQxEFvjtpy_j6-20">
          <mxGeometry y="60" width="200" height="30" as="geometry" />
        </mxCell>
        <mxCell id="n2Iy5TiBQxEFvjtpy_j6-25" value="&lt;div&gt;Адрес (address)&lt;/div&gt;" style="text;strokeColor=none;fillColor=none;align=left;verticalAlign=middle;spacingLeft=4;spacingRight=4;overflow=hidden;points=[[0,0.5],[1,0.5]];portConstraint=eastwest;rotatable=0;whiteSpace=wrap;html=1;" vertex="1" parent="n2Iy5TiBQxEFvjtpy_j6-20">
          <mxGeometry y="90" width="200" height="30" as="geometry" />
        </mxCell>
        <mxCell id="n2Iy5TiBQxEFvjtpy_j6-24" value="&lt;div&gt;Телефон (phone)&lt;/div&gt;" style="text;strokeColor=none;fillColor=none;align=left;verticalAlign=middle;spacingLeft=4;spacingRight=4;overflow=hidden;points=[[0,0.5],[1,0.5]];portConstraint=eastwest;rotatable=0;whiteSpace=wrap;html=1;" vertex="1" parent="n2Iy5TiBQxEFvjtpy_j6-20">
          <mxGeometry y="120" width="200" height="30" as="geometry" />
        </mxCell>
        <mxCell id="n2Iy5TiBQxEFvjtpy_j6-23" value="&lt;div&gt;Контактное лицо (contact_person)&lt;/div&gt;" style="text;strokeColor=none;fillColor=none;align=left;verticalAlign=middle;spacingLeft=4;spacingRight=4;overflow=hidden;points=[[0,0.5],[1,0.5]];portConstraint=eastwest;rotatable=0;whiteSpace=wrap;html=1;" vertex="1" parent="n2Iy5TiBQxEFvjtpy_j6-20">
          <mxGeometry y="150" width="200" height="30" as="geometry" />
        </mxCell>
        <mxCell id="n2Iy5TiBQxEFvjtpy_j6-26" value="&lt;div&gt;ЗАКАЗ (ORDER)&lt;/div&gt;" style="swimlane;fontStyle=0;childLayout=stackLayout;horizontal=1;startSize=30;horizontalStack=0;resizeParent=1;resizeParentMax=0;resizeLast=0;collapsible=1;marginBottom=0;whiteSpace=wrap;html=1;" vertex="1" parent="1">
          <mxGeometry x="640" y="310" width="210" height="180" as="geometry" />
        </mxCell>
        <mxCell id="n2Iy5TiBQxEFvjtpy_j6-27" value="&lt;div&gt;Код заказа (order_ID)&lt;/div&gt;" style="text;strokeColor=none;fillColor=none;align=left;verticalAlign=middle;spacingLeft=4;spacingRight=4;overflow=hidden;points=[[0,0.5],[1,0.5]];portConstraint=eastwest;rotatable=0;whiteSpace=wrap;html=1;" vertex="1" parent="n2Iy5TiBQxEFvjtpy_j6-26">
          <mxGeometry y="30" width="210" height="30" as="geometry" />
        </mxCell>
        <mxCell id="n2Iy5TiBQxEFvjtpy_j6-37" value="&lt;div&gt;Дата заказа (order_date)&lt;/div&gt;" style="text;strokeColor=none;fillColor=none;align=left;verticalAlign=middle;spacingLeft=4;spacingRight=4;overflow=hidden;points=[[0,0.5],[1,0.5]];portConstraint=eastwest;rotatable=0;whiteSpace=wrap;html=1;" vertex="1" parent="n2Iy5TiBQxEFvjtpy_j6-26">
          <mxGeometry y="60" width="210" height="30" as="geometry" />
        </mxCell>
        <mxCell id="n2Iy5TiBQxEFvjtpy_j6-28" value="&lt;div&gt;Количество товара (order_quantity)&lt;/div&gt;" style="text;strokeColor=none;fillColor=none;align=left;verticalAlign=middle;spacingLeft=4;spacingRight=4;overflow=hidden;points=[[0,0.5],[1,0.5]];portConstraint=eastwest;rotatable=0;whiteSpace=wrap;html=1;" vertex="1" parent="n2Iy5TiBQxEFvjtpy_j6-26">
          <mxGeometry y="90" width="210" height="30" as="geometry" />
        </mxCell>
        <mxCell id="n2Iy5TiBQxEFvjtpy_j6-36" value="&lt;div&gt;Код заказчика (FK)&lt;/div&gt;" style="text;strokeColor=none;fillColor=none;align=left;verticalAlign=middle;spacingLeft=4;spacingRight=4;overflow=hidden;points=[[0,0.5],[1,0.5]];portConstraint=eastwest;rotatable=0;whiteSpace=wrap;html=1;" vertex="1" parent="n2Iy5TiBQxEFvjtpy_j6-26">
          <mxGeometry y="120" width="210" height="30" as="geometry" />
        </mxCell>
        <mxCell id="n2Iy5TiBQxEFvjtpy_j6-29" value="&lt;div&gt;Код товара (FK)&lt;/div&gt;" style="text;strokeColor=none;fillColor=none;align=left;verticalAlign=middle;spacingLeft=4;spacingRight=4;overflow=hidden;points=[[0,0.5],[1,0.5]];portConstraint=eastwest;rotatable=0;whiteSpace=wrap;html=1;" vertex="1" parent="n2Iy5TiBQxEFvjtpy_j6-26">
          <mxGeometry y="150" width="210" height="30" as="geometry" />
        </mxCell>
        <mxCell id="n2Iy5TiBQxEFvjtpy_j6-38" value="ВИД ДОСТАВКИ (DELIVERY_TYPE)" style="swimlane;fontStyle=0;childLayout=stackLayout;horizontal=1;startSize=26;horizontalStack=0;resizeParent=1;resizeParentMax=0;resizeLast=0;collapsible=1;marginBottom=0;align=center;fontSize=12;" vertex="1" parent="1">
          <mxGeometry x="20" y="439" width="246" height="146" as="geometry" />
        </mxCell>
        <mxCell id="n2Iy5TiBQxEFvjtpy_j6-39" value="&lt;div&gt;Код вида доставки (delivery_type_ID)&lt;/div&gt;" style="text;strokeColor=none;fillColor=none;spacingLeft=4;spacingRight=4;overflow=hidden;rotatable=0;points=[[0,0.5],[1,0.5]];portConstraint=eastwest;fontSize=12;whiteSpace=wrap;html=1;" vertex="1" parent="n2Iy5TiBQxEFvjtpy_j6-38">
          <mxGeometry y="26" width="246" height="30" as="geometry" />
        </mxCell>
        <mxCell id="n2Iy5TiBQxEFvjtpy_j6-43" value="&lt;div&gt;Способ доставки (method)&lt;/div&gt;" style="text;strokeColor=none;fillColor=none;spacingLeft=4;spacingRight=4;overflow=hidden;rotatable=0;points=[[0,0.5],[1,0.5]];portConstraint=eastwest;fontSize=12;whiteSpace=wrap;html=1;" vertex="1" parent="n2Iy5TiBQxEFvjtpy_j6-38">
          <mxGeometry y="56" width="246" height="30" as="geometry" />
        </mxCell>
        <mxCell id="n2Iy5TiBQxEFvjtpy_j6-40" value="&lt;div&gt;Стоимость доставки (cost)&lt;/div&gt;" style="text;strokeColor=none;fillColor=none;spacingLeft=4;spacingRight=4;overflow=hidden;rotatable=0;points=[[0,0.5],[1,0.5]];portConstraint=eastwest;fontSize=12;whiteSpace=wrap;html=1;" vertex="1" parent="n2Iy5TiBQxEFvjtpy_j6-38">
          <mxGeometry y="86" width="246" height="30" as="geometry" />
        </mxCell>
        <mxCell id="n2Iy5TiBQxEFvjtpy_j6-41" value="&lt;div&gt;Скорость доставки (speed)&lt;/div&gt;" style="text;strokeColor=none;fillColor=none;spacingLeft=4;spacingRight=4;overflow=hidden;rotatable=0;points=[[0,0.5],[1,0.5]];portConstraint=eastwest;fontSize=12;whiteSpace=wrap;html=1;" vertex="1" parent="n2Iy5TiBQxEFvjtpy_j6-38">
          <mxGeometry y="116" width="246" height="30" as="geometry" />
        </mxCell>
        <mxCell id="n2Iy5TiBQxEFvjtpy_j6-44" value="ДОСТАВКА (DELIVERY)" style="swimlane;fontStyle=0;childLayout=stackLayout;horizontal=1;startSize=26;horizontalStack=0;resizeParent=1;resizeParentMax=0;resizeLast=0;collapsible=1;marginBottom=0;align=center;fontSize=12;" vertex="1" parent="1">
          <mxGeometry x="930" y="439" width="270" height="146" as="geometry" />
        </mxCell>
        <mxCell id="n2Iy5TiBQxEFvjtpy_j6-45" value="&lt;div&gt;Код доставки (delivery_ID)&lt;/div&gt;" style="text;strokeColor=none;fillColor=none;spacingLeft=4;spacingRight=4;overflow=hidden;rotatable=0;points=[[0,0.5],[1,0.5]];portConstraint=eastwest;fontSize=12;whiteSpace=wrap;html=1;" vertex="1" parent="n2Iy5TiBQxEFvjtpy_j6-44">
          <mxGeometry y="26" width="270" height="30" as="geometry" />
        </mxCell>
        <mxCell id="n2Iy5TiBQxEFvjtpy_j6-48" value="&lt;div&gt;Код заказа (FK)&lt;/div&gt;" style="text;strokeColor=none;fillColor=none;spacingLeft=4;spacingRight=4;overflow=hidden;rotatable=0;points=[[0,0.5],[1,0.5]];portConstraint=eastwest;fontSize=12;whiteSpace=wrap;html=1;" vertex="1" parent="n2Iy5TiBQxEFvjtpy_j6-44">
          <mxGeometry y="56" width="270" height="30" as="geometry" />
        </mxCell>
        <mxCell id="n2Iy5TiBQxEFvjtpy_j6-46" value="Код вида доставки (FK)" style="text;strokeColor=none;fillColor=none;spacingLeft=4;spacingRight=4;overflow=hidden;rotatable=0;points=[[0,0.5],[1,0.5]];portConstraint=eastwest;fontSize=12;whiteSpace=wrap;html=1;" vertex="1" parent="n2Iy5TiBQxEFvjtpy_j6-44">
          <mxGeometry y="86" width="270" height="30" as="geometry" />
        </mxCell>
        <mxCell id="n2Iy5TiBQxEFvjtpy_j6-47" value="Стоимость конкретной доставки (actual_cost)" style="text;strokeColor=none;fillColor=none;spacingLeft=4;spacingRight=4;overflow=hidden;rotatable=0;points=[[0,0.5],[1,0.5]];portConstraint=eastwest;fontSize=12;whiteSpace=wrap;html=1;" vertex="1" parent="n2Iy5TiBQxEFvjtpy_j6-44">
          <mxGeometry y="116" width="270" height="30" as="geometry" />
        </mxCell>
        <mxCell id="n2Iy5TiBQxEFvjtpy_j6-52" value="" style="edgeStyle=entityRelationEdgeStyle;fontSize=12;html=1;endArrow=ERoneToMany;rounded=0;exitX=1;exitY=0.5;exitDx=0;exitDy=0;entryX=0;entryY=0.5;entryDx=0;entryDy=0;" edge="1" parent="1" source="n2Iy5TiBQxEFvjtpy_j6-17" target="n2Iy5TiBQxEFvjtpy_j6-28">
          <mxGeometry width="100" height="100" relative="1" as="geometry">
            <mxPoint x="680" y="470" as="sourcePoint" />
            <mxPoint x="650" y="250" as="targetPoint" />
          </mxGeometry>
        </mxCell>
        <mxCell id="n2Iy5TiBQxEFvjtpy_j6-54" value="" style="edgeStyle=entityRelationEdgeStyle;fontSize=12;html=1;endArrow=ERoneToMany;rounded=0;exitX=1;exitY=0.5;exitDx=0;exitDy=0;entryX=0;entryY=0.5;entryDx=0;entryDy=0;" edge="1" parent="1" source="n2Iy5TiBQxEFvjtpy_j6-40" target="n2Iy5TiBQxEFvjtpy_j6-46">
          <mxGeometry width="100" height="100" relative="1" as="geometry">
            <mxPoint x="500" y="530" as="sourcePoint" />
            <mxPoint x="600" y="430" as="targetPoint" />
          </mxGeometry>
        </mxCell>
        <mxCell id="n2Iy5TiBQxEFvjtpy_j6-55" value="" style="edgeStyle=entityRelationEdgeStyle;fontSize=12;html=1;endArrow=ERmandOne;startArrow=ERmandOne;rounded=0;entryX=1;entryY=0.5;entryDx=0;entryDy=0;exitX=0;exitY=0.5;exitDx=0;exitDy=0;" edge="1" parent="1" source="n2Iy5TiBQxEFvjtpy_j6-45" target="n2Iy5TiBQxEFvjtpy_j6-29">
          <mxGeometry width="100" height="100" relative="1" as="geometry">
            <mxPoint x="500" y="530" as="sourcePoint" />
            <mxPoint x="600" y="430" as="targetPoint" />
            <Array as="points">
              <mxPoint x="680" y="490" />
              <mxPoint x="550" y="460" />
              <mxPoint x="780" y="420" />
              <mxPoint x="570" y="410" />
              <mxPoint x="580" y="460" />
            </Array>
          </mxGeometry>
        </mxCell>
        <mxCell id="n2Iy5TiBQxEFvjtpy_j6-59" value="" style="edgeStyle=entityRelationEdgeStyle;fontSize=12;html=1;endArrow=ERmany;startArrow=ERmany;rounded=0;entryX=0;entryY=0.5;entryDx=0;entryDy=0;exitX=1;exitY=0.5;exitDx=0;exitDy=0;" edge="1" parent="1" source="n2Iy5TiBQxEFvjtpy_j6-43" target="n2Iy5TiBQxEFvjtpy_j6-17">
          <mxGeometry width="100" height="100" relative="1" as="geometry">
            <mxPoint x="170" y="550" as="sourcePoint" />
            <mxPoint x="270" y="450" as="targetPoint" />
          </mxGeometry>
        </mxCell>
        <mxCell id="n2Iy5TiBQxEFvjtpy_j6-60" value="" style="edgeStyle=entityRelationEdgeStyle;fontSize=12;html=1;endArrow=ERoneToMany;rounded=0;entryX=1;entryY=0.5;entryDx=0;entryDy=0;exitX=0;exitY=0.5;exitDx=0;exitDy=0;" edge="1" parent="1" source="n2Iy5TiBQxEFvjtpy_j6-25" target="n2Iy5TiBQxEFvjtpy_j6-28">
          <mxGeometry width="100" height="100" relative="1" as="geometry">
            <mxPoint x="910" y="280" as="sourcePoint" />
            <mxPoint x="900" y="170" as="targetPoint" />
          </mxGeometry>
        </mxCell>
      </root>
    </mxGraphModel>
  </diagram>
</mxfile>
